<svg width="512" height="512" viewBox="0 0 512 512" fill="none" xmlns="http://www.w3.org/2000/svg">
<path d="M425.044 208.452C434.801 229.646 440.687 252.975 441.79 277.53H502L411.79 367.72L321.59 277.53H381.29C377.95 227.32 344.94 185.09 299.68 168.25" stroke="black" stroke-width="20" stroke-miterlimit="10" stroke-linecap="round" stroke-linejoin="round"/>
<path d="M403.767 183.16C416.636 183.16 416.657 163.16 403.767 163.16C390.898 163.16 390.876 183.16 403.767 183.16Z" fill="black"/>
<path d="M318.21 110.69C339.605 118.307 359.209 129.737 376.198 144.159" stroke="black" stroke-width="20" stroke-miterlimit="10" stroke-linecap="round" stroke-linejoin="round"/>
<path d="M138.25 242.32C155.09 197.06 197.32 164.05 247.53 160.71V220.41L337.72 130.21L247.53 40V100.21C170.45 103.67 105.44 154.27 80.6904 223.79" stroke="black" stroke-width="20" stroke-miterlimit="10" stroke-linejoin="round"/>
<path d="M340.052 440.35C342.806 445.408 340.723 451.726 335.518 454.191C311.408 465.61 284.452 472 256 472C156.28 472 74.64 393.12 70.21 294.47H10L100.21 204.28L190.41 294.47H130.71C135.06 359.78 189.6 411.59 256 411.59C274.475 411.567 292.058 407.581 307.869 400.404C312.603 398.255 318.196 400.216 320.683 404.781L340.052 440.35Z" stroke="black" stroke-width="20" stroke-miterlimit="10" stroke-linejoin="round"/>
</svg>
