<svg width="294" height="320" viewBox="0 0 294 320" fill="none" xmlns="http://www.w3.org/2000/svg">
<path fill-rule="evenodd" clip-rule="evenodd" d="M140.6 22.2591C126.455 22.2591 112.89 27.8781 102.888 37.8801C92.8859 47.882 87.2669 61.4476 87.2669 75.5924C87.2669 89.7373 92.8859 103.303 102.888 113.305C112.89 123.307 126.455 128.926 140.6 128.926C154.745 128.926 168.311 123.307 178.313 113.305C188.315 103.303 193.934 89.7373 193.934 75.5924C193.934 61.4476 188.315 47.882 178.313 37.8801C168.311 27.8781 154.745 22.2591 140.6 22.2591ZM65.9336 75.5924C65.9336 65.7871 67.8649 56.0777 71.6172 47.0188C75.3696 37.9598 80.8695 29.7286 87.8029 22.7951C94.7364 15.8617 102.968 10.3618 112.027 6.60944C121.085 2.85709 130.795 0.925781 140.6 0.925781C150.406 0.925781 160.115 2.85709 169.174 6.60944C178.233 10.3618 186.464 15.8617 193.398 22.7951C200.331 29.7286 205.831 37.9598 209.583 47.0188C213.336 56.0777 215.267 65.7871 215.267 75.5924C215.267 95.3953 207.4 114.387 193.398 128.39C179.395 142.392 160.403 150.259 140.6 150.259C120.797 150.259 101.806 142.392 87.8029 128.39C73.8002 114.387 65.9336 95.3953 65.9336 75.5924ZM137.116 202.014L126.449 202.583C90.4047 204.474 55.211 214.232 23.338 231.169C22.9791 231.363 22.6796 231.65 22.4717 232.001C22.2637 232.352 22.1551 232.753 22.1576 233.16V285.37C22.1576 287.333 23.7504 288.926 25.7131 288.926H136.561V310.259H25.7131C22.4447 310.259 19.2082 309.615 16.1885 308.365C13.1689 307.114 10.4251 305.28 8.114 302.969C5.80285 300.658 3.96955 297.914 2.71877 294.895C1.46799 291.875 0.824219 288.639 0.824219 285.37V233.146C0.824219 224.428 5.64555 216.421 13.3398 212.325C47.9597 193.924 86.1873 183.322 125.34 181.264L135.992 180.695L137.116 202.014ZM199.878 161.281C206.79 153.459 216.945 148.481 228.238 148.481H255.374C260.338 148.481 265.254 149.459 269.84 151.359C274.426 153.259 278.594 156.043 282.104 159.553C285.614 163.064 288.399 167.231 290.299 171.818C292.198 176.404 293.176 181.32 293.176 186.284V281.274C293.176 286.239 292.198 291.154 290.299 295.741C288.399 300.327 285.614 304.494 282.104 308.005C278.594 311.515 274.426 314.3 269.84 316.199C265.254 318.099 260.338 319.077 255.374 319.077H228.238C216.945 319.077 206.79 314.099 199.893 306.277L192.824 298.284L208.824 284.161L215.878 292.168C218.908 295.596 223.317 297.744 228.238 297.744H255.374C264.476 297.744 271.843 290.362 271.843 281.274V186.298C271.843 177.196 264.476 169.815 255.374 169.815H228.238C223.317 169.815 218.908 171.962 215.878 175.404L208.824 183.397L192.824 169.274L199.878 161.281Z" fill="black"/>
<path fill-rule="evenodd" clip-rule="evenodd" d="M238.947 233.785L195.427 277.305L180.337 262.23L223.857 218.695L238.947 233.785Z" fill="black"/>
<path fill-rule="evenodd" clip-rule="evenodd" d="M238.947 233.788L195.427 190.254L180.337 205.329L223.857 248.864L238.947 233.788Z" fill="black"/>
<path fill-rule="evenodd" clip-rule="evenodd" d="M134.968 223.121H227.412V244.454H134.968V223.121Z" fill="black"/>
</svg>
